<svg width="25" height="21" viewBox="0 0 25 21" fill="none" xmlns="http://www.w3.org/2000/svg">
<path d="M24.7786 15.5477C24.2882 16.1641 23.0946 16.6024 23.0946 16.6024L14.1927 19.7969V17.4401L20.7422 15.105C21.4844 14.8403 21.6015 14.4627 20.9939 14.263C20.3906 14.0634 19.2969 14.1198 18.5547 14.3889L14.1927 15.9297V13.4818C15.1996 13.1432 16.237 12.8915 17.4783 12.7526C19.2535 12.5573 21.4236 12.7786 23.1293 13.4253C25.0477 14.033 25.2647 14.9314 24.7786 15.5477ZM15.039 11.533V5.49999C15.039 4.79253 14.9088 4.14149 14.2448 3.95485C13.737 3.78992 13.4201 4.26301 13.4201 4.97048V20.0703L9.34894 18.7769V0.777771C11.0807 1.09895 13.6024 1.8585 14.9566 2.31423C18.4071 3.49913 19.5746 4.97482 19.5746 8.29513C19.5746 11.5286 17.5781 12.7569 15.039 11.533ZM1.87499 17.1927C-0.0954998 16.6371 -0.425361 15.4783 0.473077 14.8142C1.30207 14.1979 2.717 13.7335 2.717 13.7335L8.55467 11.6588V14.0243L4.35328 15.526C3.6111 15.7908 3.49825 16.1684 4.10155 16.368C4.70485 16.5677 5.7986 16.5113 6.54078 16.2422L8.55467 15.5087V17.6267C6.31509 18.0304 4.15363 17.9436 1.87499 17.1927Z" fill="white"/>
</svg>
