<svg width="25" height="25" viewBox="0 0 25 25" fill="none" xmlns="http://www.w3.org/2000/svg">
<path d="M18.0615 15.5371C20.2246 18.1885 21.2207 20.3613 20.7178 21.333C20.332 22.0703 17.9492 23.5107 16.1963 24.0625C14.751 24.5166 12.8564 24.7119 11.2939 24.5605C9.4287 24.3799 7.53905 23.7109 5.91795 22.6562C4.55565 21.7676 4.24803 21.4014 4.24803 20.6738C4.24803 19.2139 5.85448 16.6553 8.6035 13.7354C10.166 12.0801 12.3389 10.1367 12.5781 10.1904C13.0371 10.293 16.6943 13.8574 18.0615 15.5371ZM9.20897 7.02148C7.75877 5.70801 6.37206 4.38965 4.99022 3.92578C4.24803 3.67676 4.19432 3.69141 3.58885 4.32129C2.16307 5.80566 0.976547 8.21289 0.644516 10.2979C0.380844 11.9678 0.346665 12.4365 0.439438 13.252C0.712876 15.7178 1.28416 17.4219 2.41698 19.1553C2.88084 19.8682 3.0078 20 2.87108 19.6387C2.666 19.1016 2.85643 17.8076 3.33495 16.5137C4.03319 14.6094 5.96678 11.001 9.20897 7.02148ZM24.4238 10.1221C23.5986 6.21582 21.1279 3.75976 20.7812 3.75976C20.4248 3.75976 19.5996 4.07715 19.0234 4.43848C17.8857 5.14648 17.0215 5.97168 15.8838 7.0166C17.9541 9.61914 20.874 13.8232 21.8848 16.8945C22.2168 17.9053 22.3584 18.9014 22.2461 19.4482C22.1631 19.8633 22.1631 19.8633 22.3144 19.6729C22.6123 19.2969 23.2861 18.1445 23.5547 17.5488C23.916 16.7578 24.2871 15.5859 24.4629 14.6826C24.6728 13.584 24.6533 11.2256 24.4238 10.1221ZM6.8994 2.09961C9.2285 1.97754 12.2558 3.78418 12.4805 3.82812C12.5146 3.83301 12.9883 3.62305 13.5351 3.35449C16.6553 1.83594 18.125 2.09473 18.7793 2.12402C15.6592 0.205077 11.3232 -0.317384 7.35838 1.55273C6.21581 2.09473 6.18651 2.13379 6.8994 2.09961Z" fill="white"/>
</svg>
